<svg xmlns="http://www.w3.org/2000/svg" width="18.799" height="23.49" viewBox="0 0 18.799 23.49">
  <path id="Path_3027" data-name="Path 3027" d="M332.5,694.791a4.991,4.991,0,0,1,.574-2.358,5.5,5.5,0,0,1,1.924-2.1,5.327,5.327,0,0,0-4.231-2.345c-1.784-.179-3.491,1.083-4.4,1.083s-2.332-1.045-3.823-1.033a5.728,5.728,0,0,0-4.779,2.956,6.634,6.634,0,0,0-.688,1.772c-.867,3.4.5,7.6,2.167,10.068.956,1.415,2.128,3.034,3.632,2.97,1.466-.051,2.014-.956,3.785-.956s2.256.956,3.811.918c1.58-.013,2.575-1.453,3.543-2.867a13.935,13.935,0,0,0,1.593-3.34,5.228,5.228,0,0,1-3.11-4.767Zm-2.893-8.742a5.25,5.25,0,0,0,1.211-3.734,5.108,5.108,0,0,0-4.626,5.416,4.3,4.3,0,0,0,3.415-1.67Z" transform="translate(-316.81 -682.315)" fill="#fbfbfb" fill-rule="evenodd"/>
</svg>
