<svg xmlns="http://www.w3.org/2000/svg" xmlns:xlink="http://www.w3.org/1999/xlink" width="123" height="103" viewBox="0 0 123 103">
  <defs>
    <filter id="Polygon_15" x="0" y="0" width="123" height="103" filterUnits="userSpaceOnUse">
      <feOffset dy="3" input="SourceAlpha"/>
      <feGaussianBlur stdDeviation="3" result="blur"/>
      <feFlood flood-opacity="0.576"/>
      <feComposite operator="in" in2="blur"/>
      <feComposite in="SourceGraphic"/>
    </filter>
    <filter id="Ellipse_1811" x="49" y="16" width="24" height="24" filterUnits="userSpaceOnUse">
      <feOffset dy="3" input="SourceAlpha"/>
      <feGaussianBlur stdDeviation="3" result="blur-2"/>
      <feFlood flood-opacity="0.161"/>
      <feComposite operator="in" in2="blur-2"/>
      <feComposite in="SourceGraphic"/>
    </filter>
  </defs>
  <g transform="matrix(1, 0, 0, 1, 0, 0)" filter="url(#Polygon_15)">
    <g id="Polygon_15-2" data-name="Polygon 15" transform="translate(9 6)" fill="none">
      <path d="M44.843,12.4a9,9,0,0,1,15.314,0L96.52,71.271A9,9,0,0,1,88.863,85H16.137A9,9,0,0,1,8.48,71.271Z" stroke="none"/>
      <path d="M 52.4999885559082 9.126777648925781 C 49.7061767578125 9.126777648925781 47.16172409057617 10.54586791992188 45.69361114501953 12.92282867431641 L 9.330734252929688 71.79605102539062 C 7.784759521484375 74.29906463623047 7.717315673828125 77.32733917236328 9.150299072265625 79.89670562744141 C 10.58329010009766 82.46604919433594 13.1951904296875 84 16.13712310791016 84 L 88.86286163330078 84 C 91.8048095703125 84 94.41670989990234 82.46604919433594 95.84970092773438 79.89669036865234 C 97.28267669677734 77.32733917236328 97.21522521972656 74.29906463623047 95.66925048828125 71.79605102539062 L 59.30637359619141 12.92282867431641 C 57.83824920654297 10.54586791992188 55.29380035400391 9.126777648925781 52.4999885559082 9.126777648925781 M 52.49999237060547 8.126777648925781 C 55.44934844970703 8.126777648925781 58.39870452880859 9.55029296875 60.15717315673828 12.3973388671875 L 96.52005004882812 71.27056884765625 C 100.2234649658203 77.26656341552734 95.91036224365234 85 88.86286163330078 85 L 16.13712310791016 85 C 9.089622497558594 85 4.776535034179688 77.26656341552734 8.479934692382812 71.27056884765625 L 44.84281158447266 12.3973388671875 C 46.60128021240234 9.55029296875 49.55063629150391 8.126777648925781 52.49999237060547 8.126777648925781 Z" stroke="none" fill="#707070"/>
    </g>
  </g>
  <g transform="matrix(1, 0, 0, 1, 0, 0)" filter="url(#Ellipse_1811)">
    <g id="Ellipse_1811-2" data-name="Ellipse 1811" transform="translate(58 22)" stroke="#707070" stroke-width="1">
      <circle cx="3" cy="3" r="3" stroke="none"/>
      <circle cx="3" cy="3" r="2.5" fill="none"/>
    </g>
  </g>
</svg>
