<svg xmlns="http://www.w3.org/2000/svg" width="26.43" height="17.609" viewBox="0 0 26.43 17.609">
  <g id="Group_718" data-name="Group 718" opacity="0.708">
    <path id="Path_18241" data-name="Path 18241" d="M0,0H23.22V3.989H0Z" transform="translate(0.358 3.076)"/>
    <path id="Path_1964" data-name="Path 1964" d="M505.7,457.916l.052,0v-7.245a1.227,1.227,0,0,0-1.228-1.227H483.047a1.227,1.227,0,0,0-1.228,1.227v13.2a1.227,1.227,0,0,0,1.228,1.227h16.965a5.828,5.828,0,0,1,5.692-7.18Zm-23.526-2.231V451.7H505.4v3.989Z" transform="translate(-481.819 -449.446)" fill="#e840c1"/>
    <path id="Path_1965" data-name="Path 1965" d="M505.79,466.269a5.042,5.042,0,1,0,5.041-5.042A5.048,5.048,0,0,0,505.79,466.269Zm8.973,0a3.877,3.877,0,1,1-3.877-3.876A3.877,3.877,0,0,1,514.763,466.269Z" transform="translate(-489.443 -453.703)" fill="#ffb400"/>
    <path id="Path_1966" data-name="Path 1966" d="M511.931,470h.443a.242.242,0,0,0,.242-.242v-.412a2.29,2.29,0,0,0,.927-.336,1.321,1.321,0,0,0,.636-1.131,1.119,1.119,0,0,0-.25-.764,2,2,0,0,0-1.313-.627v-.835a1.285,1.285,0,0,1,.3.2.322.322,0,0,0,.208.075.426.426,0,0,0,.152-.045h0l.5-.312a.2.2,0,0,0,.1-.164.184.184,0,0,0-.066-.141,2,2,0,0,0-1.2-.656v-.471a.242.242,0,0,0-.242-.242h-.443a.243.243,0,0,0-.243.242v.458a2.218,2.218,0,0,0-.622.174,1.276,1.276,0,0,0-.879,1.218,1.174,1.174,0,0,0,.238.705,1.845,1.845,0,0,0,1.263.656v1.043a1.8,1.8,0,0,1-.713-.5.237.237,0,0,0-.2-.1.486.486,0,0,0-.133.039h0l-.452.266a.192.192,0,0,0-.061.307,2.26,2.26,0,0,0,.474.473,2.356,2.356,0,0,0,1.082.463v.412A.243.243,0,0,0,511.931,470Zm.685-2.539c.239.075.361.215.359.42a.5.5,0,0,1-.262.444.707.707,0,0,1-.1.051Zm-1.22-1.47a.377.377,0,0,1,.258-.348l.034-.014v.741A.391.391,0,0,1,511.4,465.992Z" transform="translate(-490.652 -454.455)" fill="#fff"/>
    <path id="Path_1967" data-name="Path 1967" d="M512.1,466.977a.393.393,0,0,0,.292.378v-.74l-.034.013A.381.381,0,0,0,512.1,466.977Z" transform="translate(-491.222 -455.221)" fill="#aad4c8"/>
    <path id="Path_1968" data-name="Path 1968" d="M513.4,469.464a.715.715,0,0,0,.1-.051.5.5,0,0,0,.262-.444c0-.205-.12-.345-.359-.42Z" transform="translate(-491.587 -455.766)" fill="#aad4c8"/>
    <path id="Path_1969" data-name="Path 1969" d="M507.47,466.726a3.877,3.877,0,1,0,3.877-3.876A3.877,3.877,0,0,0,507.47,466.726Zm4.426-2.9v.47a2,2,0,0,1,1.2.657.181.181,0,0,1,.066.141.2.2,0,0,1-.1.164l-.5.312h0a.42.42,0,0,1-.151.044.314.314,0,0,1-.208-.075,1.314,1.314,0,0,0-.3-.2v.835a2.005,2.005,0,0,1,1.313.627,1.126,1.126,0,0,1,.25.765,1.319,1.319,0,0,1-.636,1.13,2.274,2.274,0,0,1-.927.336v.412a.242.242,0,0,1-.242.242h-.444a.242.242,0,0,1-.242-.242v-.411a2.364,2.364,0,0,1-1.083-.464,2.248,2.248,0,0,1-.473-.473.191.191,0,0,1-.052-.129.194.194,0,0,1,.113-.177l.452-.266h0a.478.478,0,0,1,.132-.039.236.236,0,0,1,.2.1,1.794,1.794,0,0,0,.713.5v-1.044a1.844,1.844,0,0,1-1.263-.655,1.173,1.173,0,0,1-.239-.705,1.277,1.277,0,0,1,.88-1.218,2.238,2.238,0,0,1,.622-.175v-.457a.243.243,0,0,1,.242-.243h.444A.242.242,0,0,1,511.9,463.822Z" transform="translate(-489.916 -454.16)"/>
  </g>
</svg>
