<svg xmlns="http://www.w3.org/2000/svg" width="24.441" height="15.566" viewBox="0 0 24.441 15.566">
  <path id="Path_3013" data-name="Path 3013" d="M577.19,81.842c-1.7.026-3.39.026-5.085.026-.484,0-.981-.026-1.453,0-.1,0-.254.114-.254.178-.013.982-.013,1.962-.013,2.982h4.142a2.087,2.087,0,0,1-.139.5A4,4,0,0,1,569.708,88a4.556,4.556,0,0,1-3.734-5.43,4.838,4.838,0,0,1,.306-1.058,4.575,4.575,0,0,1,5.1-2.562,4.2,4.2,0,0,1,1.949,1.007l2.282-2.281a1.106,1.106,0,0,1-.191-.165,7.453,7.453,0,0,0-6.3-1.721,7.821,7.821,0,0,0-5.989,10.464,7.844,7.844,0,0,0,8.194,4.932,6.941,6.941,0,0,0,4.5-2.1,7.955,7.955,0,0,0,1.975-6.742c-.051-.42-.216-.5-.612-.5Zm7.711.243h-.509v-.459c0-.65.013-1.3,0-1.963,0-.1-.127-.293-.179-.293-.585-.026-1.185-.026-1.809-.026v2.715h-2.741v.5c.026.484.039.981.077,1.466.472.026.944.051,1.44.051.4.013.8,0,1.236,0v2.676c.676-.013,1.3,0,1.976,0V84.072h2.676V82.084Z" transform="translate(-562.626 -75.667)" fill="#f082bd" fill-rule="evenodd"/>
</svg>
