<svg xmlns="http://www.w3.org/2000/svg" width="191" height="140" viewBox="0 0 191 140">
  <g id="Group_7119" data-name="Group 7119" transform="translate(-35 -31.587)">
    <g id="Group_1" data-name="Group 1" transform="translate(103.256 31.587)">
      <path id="Path_1" data-name="Path 1" d="M572.117,356.077v.083a28.667,28.667,0,0,1-4.086,14.8,7.634,7.634,0,0,1-3.143-1.269c-.1-.065-.193-.136-.29-.211.319-.53.62-1.068.9-1.623a24.606,24.606,0,0,0,2.652-11.145c0-.362-.007-.72-.025-1.075a24.661,24.661,0,0,0-10.231-18.964,8.044,8.044,0,0,0,.674-.982,7.652,7.652,0,0,0,1.011-3.311q.919.629,1.785,1.333A28.744,28.744,0,0,1,572.117,356.077Z" transform="translate(-514.22 -316.879)" fill="#fbfbfb"/>
      <path id="Path_2" data-name="Path 2" d="M495.763,450.918l-9.955,9.977-.233.233L474.218,472.51l-10.93-11.045-.613-.62-9.83-9.937a.288.288,0,0,0,.025-.047,7.891,7.891,0,0,1,2.659-2.82c.154-.1.312-.19.477-.276l1.412,1.427,3.447,3.487h0l1.906,1.928,3.691,3.73,1.075,1.086,6.776,6.848,7.006-7.021.9-.9,3.688-3.695,2.57-2.573.014-.014,2.8-2.806,1.688-1.692a2.143,2.143,0,0,1,.215.154,7.4,7.4,0,0,1,1.595,1.545,7.612,7.612,0,0,1,.8,1.261C495.648,450.656,495.705,450.786,495.763,450.918Z" transform="translate(-445.005 -392.781)" fill="#e840c1"/>
      <path id="Path_3" data-name="Path 3" d="M505.66,299.543a12.538,12.538,0,0,1-1.8,6.487,8.2,8.2,0,0,1-4.2-1.627,8.255,8.255,0,0,0-13.138-9.909c-.258-.025-.523-.04-.788-.04a8.189,8.189,0,0,0-4.755,1.513,12.6,12.6,0,0,1,24.68,3.576Z" transform="translate(-463.543 -286.947)" fill="#e840c1"/>
      <path id="Path_4" data-name="Path 4" d="M463.158,319.334a7.619,7.619,0,0,1-.086,1.151,7.95,7.95,0,0,1-.233,1.057,23.755,23.755,0,0,0-2.838-.294l-.236-.011-.283-.011c-.215,0-.43-.007-.645-.007-.613,0-1.222.021-1.824.068a24.311,24.311,0,0,0-5.483,1.032c-.158.046-.316.1-.47.154a23.337,23.337,0,0,0-2.293.885c-.377.165-.749.344-1.115.53-.043.021-.086.043-.129.068a24.116,24.116,0,0,0-2.387,1.4c-.179.118-.355.24-.53.366-.068.046-.136.1-.2.147a24.742,24.742,0,0,0-7.164,8.045c-.007.007-.011.011-.007.014a8.025,8.025,0,0,0-1.243,2.577s-.007.007,0,.011a24.637,24.637,0,0,0-1.853,9.4c0,.175,0,.351.007.527a24.551,24.551,0,0,0,2.6,10.525q.409.812.871,1.591a.788.788,0,0,1-.083.1,7.774,7.774,0,0,1-3.093,2.279,28.6,28.6,0,0,1-4.555-14.775c-.011-.265-.014-.534-.014-.8a28.762,28.762,0,0,1,11.722-23.2c.674-.5,1.376-.975,2.1-1.412.24-.151.484-.294.731-.434q1.032-.6,2.125-1.1c.082-.043.169-.082.254-.122.29-.129.584-.258.878-.376a28.142,28.142,0,0,1,3.035-1.064l.43-.118a28.507,28.507,0,0,1,5.945-.95q.339-.022.677-.032c.022,0,.043,0,.065,0,.286-.011.573-.014.864-.014.727,0,1.451.029,2.164.079.541.043,1.079.1,1.609.169.1.014.19.025.287.039A7.664,7.664,0,0,1,463.158,319.334Z" transform="translate(-429.862 -306.454)" fill="#fbfbfb"/>
      <path id="Path_5" data-name="Path 5" d="M498.278,364.5a18.956,18.956,0,1,1-31.034-14.607,3.9,3.9,0,0,1,3.627,2.953,14.19,14.19,0,0,0-5.53,11.245v.1a14.209,14.209,0,1,0,14.206-14.3,13.912,13.912,0,0,0-1.648.1h0a12.45,12.45,0,0,1-3.788-1.2c-.34-.169-.67-.355-.993-.555l-.133-.086c-.086-.054-.172-.111-.255-.169q-.231-.161-.452-.333c-.176-.133-.348-.273-.512-.416l-.022.011c-.029-.025-.057-.047-.086-.075a12.332,12.332,0,0,1-1.6-1.609,8.209,8.209,0,0,0,4.064-1.233,8.168,8.168,0,0,0,2.49,1.423c.025.011.054.018.083.029a8.044,8.044,0,0,0,1.914.415c.258.025.523.04.788.04a8.132,8.132,0,0,0,2.734-.469,18.7,18.7,0,0,1,5.43,1.674A18.951,18.951,0,0,1,498.278,364.5Z" transform="translate(-449.961 -324.747)" fill="#e840c1"/>
    </g>
    <text id="Spacevale" transform="translate(35 164.587)" fill="#fbfbfb" font-size="32" font-family="Arial-BoldMT, Arial" font-weight="700"><tspan x="0" y="0">SPACEVALE</tspan></text>
  </g>
</svg>
