<svg xmlns="http://www.w3.org/2000/svg" width="26" height="29" viewBox="0 0 26 29">
  <g id="icon_chat-notification" transform="translate(4 6.917)">
    <path id="Chat_Icon" data-name="Chat Icon" d="M15.547,19.1a10.924,10.924,0,0,1-1.8.151,10.019,10.019,0,0,1-5.232-1.4c.141,0,.277.028.419.028,5.72,0,10.483-3.647,11.486-8.441A5.208,5.208,0,0,1,22,13.062,5.141,5.141,0,0,1,20.609,16.5h.016V22ZM1.375,11.58A6.7,6.7,0,0,1,0,7.563C0,3.385,4,0,8.938,0s8.938,3.385,8.938,7.563-4,7.563-8.938,7.563a10.25,10.25,0,0,1-3.851-.745L1.375,16.5Z" transform="translate(0 0.083)"/>
  </g>
  <g id="Notification_Badge" data-name="Notification Badge" transform="translate(2 2)" fill="#e840c1" stroke="#fff" stroke-width="2">
    <circle cx="5.5" cy="5.5" r="5.5" stroke="none"/>
    <circle cx="5.5" cy="5.5" r="6.5" fill="none"/>
  </g>
</svg>
