<svg xmlns="http://www.w3.org/2000/svg" width="65.45" height="49.088" viewBox="0 0 65.45 49.088">
  <path id="Path_148" data-name="Path 148" d="M61.087,0a4.166,4.166,0,0,1,2.727,1.091C64.9,2.182,65.45,2.727,65.45,4.363V45.27A4.166,4.166,0,0,1,64.359,48a5.848,5.848,0,0,1-3.273,1.091H4.363A5.848,5.848,0,0,1,1.091,48,5.848,5.848,0,0,1,0,44.724V4.363A4.166,4.166,0,0,1,1.091,1.636C2.182.545,2.727,0,4.363,0ZM18.544,9.818a6.193,6.193,0,0,0-4.363-1.636A6.193,6.193,0,0,0,9.818,9.818a6.193,6.193,0,0,0-1.636,4.363,6.193,6.193,0,0,0,1.636,4.363,6.193,6.193,0,0,0,4.363,1.636,6.193,6.193,0,0,0,4.363-1.636,6.193,6.193,0,0,0,1.636-4.363A6.193,6.193,0,0,0,18.544,9.818ZM57.269,40.906,40.906,16.363,26.18,35.452l-9.818-7.09L8.181,40.906Z" fill="#707070"/>
</svg>
