<svg xmlns="http://www.w3.org/2000/svg" width="30" height="30" viewBox="0 0 30 30">
  <g id="Group_6983" data-name="Group 6983" transform="translate(-590 -36)">
    <circle id="Ellipse_1807" data-name="Ellipse 1807" cx="15" cy="15" r="15" transform="translate(590 36)" fill="#e840c1"/>
    <g id="Search" transform="translate(600.001 45.976)">
      <rect id="Rectangle_176" data-name="Rectangle 176" width="9.936" height="9.936" transform="translate(0 0.052)" fill="none"/>
      <path id="Path_99" data-name="Path 99" d="M9.874,9,7.825,6.955a4.252,4.252,0,0,0,.869-2.608A4.32,4.32,0,0,0,4.347,0,4.32,4.32,0,0,0,0,4.347,4.32,4.32,0,0,0,4.347,8.694a4.252,4.252,0,0,0,2.608-.869L9,9.874ZM1.242,4.347A3.075,3.075,0,0,1,4.347,1.242,3.075,3.075,0,0,1,7.452,4.347,3.075,3.075,0,0,1,4.347,7.452,3.075,3.075,0,0,1,1.242,4.347Z" transform="translate(0 0)" fill="#fff"/>
    </g>
  </g>
</svg>
