<svg xmlns="http://www.w3.org/2000/svg" width="9.936" height="9.987" viewBox="0 0 9.936 9.987">
  <g id="Group_7030" data-name="Group 7030" transform="translate(-600.001 -45.976)">
    <g id="Search" transform="translate(600.001 45.976)">
      <rect id="Rectangle_176" data-name="Rectangle 176" width="9.936" height="9.936" transform="translate(0 0.052)" fill="none"/>
      <path id="Path_99" data-name="Path 99" d="M9.874,9,7.825,6.955a4.252,4.252,0,0,0,.869-2.608A4.32,4.32,0,0,0,4.347,0,4.32,4.32,0,0,0,0,4.347,4.32,4.32,0,0,0,4.347,8.694a4.252,4.252,0,0,0,2.608-.869L9,9.874ZM1.242,4.347A3.075,3.075,0,0,1,4.347,1.242,3.075,3.075,0,0,1,7.452,4.347,3.075,3.075,0,0,1,4.347,7.452,3.075,3.075,0,0,1,1.242,4.347Z" transform="translate(0 0)" fill="#e840c1"/>
    </g>
  </g>
</svg>
